<?xml version="1.0" standalone="no"?>
<!DOCTYPE svg PUBLIC "-//W3C//DTD SVG 20010904//EN"
 "http://www.w3.org/TR/2001/REC-SVG-20010904/DTD/svg10.dtd">
<svg version="1.0" xmlns="http://www.w3.org/2000/svg"
 width="582.000000pt" height="582.000000pt" viewBox="0 0 582.000000 582.000000"
 preserveAspectRatio="xMidYMid meet">

<g transform="translate(0.000000,582.000000) scale(0.100000,-0.100000)"
fill="#000000" stroke="none">
<path d="M5331 5439 c-107 -35 -381 -172 -555 -277 -153 -93 -326 -206 -326
-212 0 -9 499 -504 504 -500 10 11 159 244 216 340 147 242 300 580 300 660 0
28 -26 25 -139 -11z"/>
<path d="M978 4703 c-346 -345 -628 -632 -628 -638 0 -6 41 -51 90 -100 l90
-90 625 625 c677 676 661 658 636 739 -18 61 -60 91 -129 91 l-57 0 -627 -627z"/>
<path d="M4265 4828 c-367 -261 -736 -540 -962 -725 -56 -45 -109 -83 -117
-83 -9 0 -451 102 -982 226 l-967 225 -231 -230 -231 -231 607 -607 608 -608
212 212 c117 116 229 219 248 228 73 38 190 15 246 -47 59 -64 76 -168 40
-238 -10 -19 -113 -131 -229 -248 l-212 -212 98 -97 97 -98 212 212 c117 116
229 219 248 229 73 38 189 15 246 -48 58 -63 75 -168 39 -238 -9 -19 -112
-131 -228 -248 l-212 -212 608 -608 607 -607 231 231 230 231 -225 967 c-124
532 -226 974 -226 982 0 7 48 73 106 145 278 347 774 1017 774 1046 0 12 -514
523 -525 522 -6 0 -55 -32 -110 -71z m70 -359 c77 -22 145 -115 145 -199 0
-67 -44 -121 -311 -387 -310 -308 -332 -323 -444 -292 -52 15 -119 82 -134
134 -31 112 -16 134 292 444 312 313 339 331 452 300z"/>
<path d="M1830 2515 l-655 -655 90 -90 c49 -49 94 -90 100 -90 12 0 1265 1254
1289 1290 9 13 16 44 16 68 0 82 -51 132 -136 132 l-49 0 -655 -655z"/>
<path d="M555 2697 c-7 -19 -65 -295 -65 -306 0 -5 33 -29 73 -52 194 -112
294 -184 454 -327 l100 -90 384 384 c211 211 381 385 379 387 -3 2 -301 7
-663 10 -516 5 -659 4 -662 -6z"/>
<path d="M2970 2654 c-36 -24 -1290 -1277 -1290 -1289 0 -6 41 -51 90 -100
l90 -90 655 655 655 655 0 48 c0 89 -46 137 -132 137 -24 0 -55 -7 -68 -16z"/>
<path d="M1587 1782 c-356 -356 -647 -651 -647 -657 0 -13 172 -185 185 -185
5 0 302 292 660 650 l650 650 -95 95 c-52 52 -97 95 -100 95 -3 0 -296 -291
-653 -648z"/>
<path d="M2307 1502 c-207 -207 -377 -381 -377 -386 0 -5 28 -38 63 -75 80
-85 195 -223 234 -281 17 -25 56 -92 87 -150 31 -58 61 -109 66 -114 8 -8 307
50 322 63 9 8 -2 1321 -11 1321 -3 0 -176 -170 -384 -378z"/>
<path d="M5145 1786 c-16 -8 -309 -293 -650 -635 l-620 -621 90 -90 c49 -49
94 -90 100 -90 6 0 293 282 638 628 l627 627 0 56 c0 65 -23 103 -76 125 -41
17 -70 17 -109 0z"/>
</g>
</svg>
